<?xml version="1.0" encoding="utf-8"?>
<?xml-stylesheet type="text/css" href="css/main.css"?>
<svg xmlns="http://www.w3.org/2000/svg" xmlns:xlink="http://www.w3.org/1999/xlink">
  <symbol xmlns="http://www.w3.org/2000/svg" id="inst" viewBox="0 0 36.663 36.664">
      <path d="M32.305 0H4.357A4.352 4.352 0 0 0 0 4.349v27.967c0 2.4 1.95 4.348 4.357 4.348h27.947a4.353 4.353 0 0 0 4.358-4.348V4.349A4.351 4.351 0 0 0 32.305 0m-5.953 5.729c0-.632.513-1.146 1.146-1.146h3.438c.632 0 1.145.514 1.145 1.146v3.438c0 .633-.513 1.146-1.145 1.146h-3.438a1.146 1.146 0 0 1-1.146-1.146V5.729zm-7.978 5.612c3.894 0 7.051 3.149 7.051 7.033 0 3.885-3.157 7.034-7.051 7.034s-7.051-3.148-7.051-7.034c0-3.884 3.157-7.033 7.051-7.033M33.226 32.08c0 .633-.513 1.146-1.146 1.146H4.583a1.147 1.147 0 0 1-1.146-1.146V14.895H8.02c-.597.858-.798 2.462-.798 3.479 0 6.135 5.003 11.127 11.152 11.127s11.153-4.992 11.153-11.127c0-1.018-.145-2.596-.885-3.479h4.583V32.08z"/>
  </symbol>
  <symbol xmlns="http://www.w3.org/2000/svg" id="twitter" viewBox="0 0 511.271 511.271">
    <path d="M508.342,94.243c-2.603-2.603-6.942-3.471-10.414-2.603l-17.356,6.075c10.414-12.149,17.356-25.166,21.695-37.315
      c1.736-4.339,0.868-7.81-1.736-10.414c-2.603-2.603-6.942-3.471-10.414-1.736c-24.298,10.414-45.125,19.092-62.481,24.298
      c0,0.868-0.868,0-1.736,0c-13.885-7.81-47.729-25.166-72.027-25.166c-61.614,0.868-111.078,52.936-111.078,116.285v3.471
      c-90.251-17.356-139.715-43.39-193.519-99.797L40.6,58.663l-5.207,10.414c-29.505,56.407-8.678,107.607,25.166,142.319
      c-15.62-2.603-26.034-7.81-35.58-15.62c-3.471-2.603-7.81-3.471-12.149-0.868c-3.471,1.736-5.207,6.942-4.339,11.281
      c12.149,40.786,42.522,73.763,75.498,93.722c-15.62,0-28.637-1.736-41.654-10.414c-3.471-1.736-8.678-1.736-12.149,0.868
      s-5.207,6.942-3.471,11.281c15.62,44.258,45.993,67.688,94.59,73.763c-25.166,14.753-58.142,26.902-109.342,27.77
      c-5.207,0-9.546,3.471-11.281,7.81c-1.736,5.207,0,9.546,3.471,13.017c31.241,25.166,100.664,39.919,186.576,39.919
      c152.732,0,277.695-136.244,277.695-303.729v-2.603c19.092-9.546,34.712-27.77,42.522-52.936
      C511.813,101.185,510.945,96.846,508.342,94.243z M456.274,143.707l-5.207,1.736v14.753
      c0,157.939-117.153,286.373-260.339,286.373c-78.97,0-131.905-13.017-160.542-26.902c59.878-4.339,94.59-23.431,121.492-44.258
      l21.695-15.62h-26.034c-49.464,0-79.837-13.885-97.193-46.861c15.62,5.207,32.108,5.207,50.332,4.339
      c6.942-0.868,13.885-0.868,20.827-0.868l2.603-17.356c-32.976-9.546-72.027-39.051-91.119-78.969
      c17.356,7.81,36.447,9.546,53.803,9.546h26.902L91.8,213.999c-18.224-13.017-72.027-59.01-45.993-124.963
      c55.539,54.671,108.475,79.837,203.932,97.193l10.414,1.736v-24.298c0-53.803,41.654-98.061,93.722-98.929
      c19.959-0.868,52.936,17.356,62.481,22.563c5.207,2.603,10.414,3.471,15.62,1.736c13.017-4.339,28.637-10.414,45.993-17.356
      c-7.81,13.017-18.224,25.166-32.108,36.448c-3.471,2.603-4.339,7.81-2.603,12.149c1.736,4.339,6.942,6.075,11.281,4.339
      l33.844-11.281C482.308,124.616,472.762,137.633,456.274,143.707z"/>
  </symbol>
  <symbol xmlns="http://www.w3.org/2000/svg" id="fb" viewBox="0 0 288.861 288.861">
    <path d="M167.172,288.861h-62.16V159.347H70.769v-59.48h34.242v-33.4C105.011,35.804,124.195,0,178.284,0
      c19.068,0,33.066,1.787,33.651,1.864l5.739,0.746l-1.382,55.663l-6.324-0.058c-0.013,0-14.223-0.135-29.724-0.135
      c-11.536,0-13.066,2.847-13.066,14.171v27.629h50.913l-2.821,59.48h-48.086v129.501H167.172z M117.858,276.007h36.453V146.5h48.677
      l1.607-33.779h-50.284V72.238c0-13.368,3.078-27.025,25.919-27.025c9.178,0,17.899,0.045,23.509,0.09l0.778-31.292
      c-5.675-0.508-15.116-1.157-26.247-1.157c-44.544,0-60.419,27.693-60.419,53.613v46.254H83.61V146.5h34.242v129.507H117.858z"/>
  </symbol>

  <symbol xmlns="http://www.w3.org/2000/svg" id="mail" viewBox="0 0 612.074 612.074">
    <path d="M612.074,132.141v-2.38c0-8.849-4.016-19.26-11.229-26.473l-0.818-0.818c0,0-0.818,0-0.818-0.818
		c-1.636-1.636-3.198-2.38-4.833-4.016c-0.818,0-0.818-0.818-1.636-0.818c-1.636-0.818-4.016-1.636-5.652-2.38
		c-0.818,0-0.818-0.818-1.636-0.818c-2.38-0.818-4.833-1.636-7.213-1.636c-0.818,0-0.818,0-1.636,0c-2.38,0-5.651-0.818-8.849-0.818
		H43.427c-3.198,0-6.395,0-9.667,0.818c-0.818,0-1.636,0-2.38,0.818c-2.38,0.818-4.834,0.818-6.395,1.636
		c-0.818,0-0.818,0.818-1.636,0.818c-1.636,0.818-4.016,1.636-5.652,2.38l-0.818,0.818c-1.636,0.818-3.198,2.38-4.834,3.198
		c-0.818,0.818-1.636,1.636-2.38,2.38C4.016,110.428,0.818,117.715,0,125.746c0,0.818,0,0.818,0,1.636v357.384
		c0,0.818,0,0.818,0,1.636c1.636,11.229,7.213,20.896,15.244,26.473c7.213,4.833,16.062,8.031,26.473,8.031H569.39c0,0,0,0,0.818,0
		l0,0c2.38,0,5.651,0,8.031-0.818c0.818,0,0.818,0,1.636,0c2.38-0.818,4.834-0.818,6.395-1.636h0.818
		c17.698-6.395,24.911-21.714,24.911-36.14v-2.38v-0.818v-0.818V134.521c0-0.818,0-0.818,0-1.636
		C612.074,132.959,612.074,132.959,612.074,132.141z M560.69,120.913l-252.98,246.51l-57.854-56.218l0,0L51.459,120.838H560.69
		V120.913z M29.819,475.099V140.991l187.095,179.882L29.819,475.099z M299.679,491.905H56.292l182.336-149.393l58.597,57.036
		c2.38,2.38,4.834,3.198,7.213,4.016h0.818c0.818,0,0.818,0,1.636,0l0,0c0.818,0,1.636,0,1.636,0h0.818
		c2.38-0.818,5.651-1.636,7.213-4.016l55.4-53.838l183.079,146.196H299.679z M582.329,475.843L394.417,324.07L582.329,140.99
		V475.843z"/>
  </symbol>
  <symbol xmlns="http://www.w3.org/2000/svg" id="youtube" viewBox="0 -62 512.00199 512">
    <path d="m334.808594 170.992188-113.113282-61.890626c-6.503906-3.558593-14.191406-3.425781-20.566406.351563-6.378906 3.78125-10.183594 10.460937-10.183594 17.875v122.71875c0 7.378906 3.78125 14.046875 10.117188 17.832031 3.308594 1.976563 6.976562 2.96875 10.652344 2.96875 3.367187 0 6.742187-.832031 9.847656-2.503906l113.117188-60.824219c6.714843-3.613281 10.90625-10.59375 10.9375-18.222656.027343-7.628906-4.113282-14.640625-10.808594-18.304687zm-113.859375 63.617187v-91.71875l84.539062 46.257813zm0 0"/><path d="m508.234375 91.527344-.023437-.234375c-.433594-4.121094-4.75-40.777344-22.570313-59.421875-20.597656-21.929688-43.949219-24.59375-55.179687-25.871094-.929688-.105469-1.78125-.203125-2.542969-.304688l-.894531-.09375c-67.6875-4.921874-169.910157-5.5937495-170.933594-5.59765575l-.089844-.00390625-.089844.00390625c-1.023437.00390625-103.246094.67578175-171.542968 5.59765575l-.902344.09375c-.726563.097657-1.527344.1875-2.398438.289063-11.101562 1.28125-34.203125 3.949219-54.859375 26.671875-16.972656 18.445312-21.878906 54.316406-22.382812 58.347656l-.058594.523438c-.152344 1.714844-3.765625 42.539062-3.765625 83.523437v38.3125c0 40.984375 3.613281 81.808594 3.765625 83.527344l.027344.257813c.433593 4.054687 4.746093 40.039062 22.484375 58.691406 19.367187 21.195312 43.855468 24 57.027344 25.507812 2.082031.238282 3.875.441406 5.097656.65625l1.183594.164063c39.082031 3.71875 161.617187 5.550781 166.8125 5.625l.15625.003906.15625-.003906c1.023437-.003907 103.242187-.675781 170.929687-5.597657l.894531-.09375c.855469-.113281 1.816406-.214843 2.871094-.324218 11.039062-1.171875 34.015625-3.605469 54.386719-26.019532 16.972656-18.449218 21.882812-54.320312 22.382812-58.347656l.058594-.523437c.152344-1.71875 3.769531-42.539063 3.769531-83.523438v-38.3125c-.003906-40.984375-3.617187-81.804687-3.769531-83.523437zm-26.238281 121.835937c0 37.933594-3.3125 77-3.625 80.585938-1.273438 9.878906-6.449219 32.574219-14.71875 41.5625-12.75 14.027343-25.847656 15.417969-35.410156 16.429687-1.15625.121094-2.226563.238282-3.195313.359375-65.46875 4.734375-163.832031 5.460938-168.363281 5.488281-5.082032-.074218-125.824219-1.921874-163.714844-5.441406-1.941406-.316406-4.039062-.558594-6.25-.808594-11.214844-1.285156-26.566406-3.042968-38.371094-16.027343l-.277344-.296875c-8.125-8.464844-13.152343-29.6875-14.429687-41.148438-.238281-2.710937-3.636719-42.238281-3.636719-80.703125v-38.3125c0-37.890625 3.304688-76.914062 3.625-80.574219 1.519532-11.636718 6.792969-32.957031 14.71875-41.574218 13.140625-14.453125 26.996094-16.054688 36.160156-17.113282.875-.101562 1.691407-.195312 2.445313-.292968 66.421875-4.757813 165.492187-5.464844 169.046875-5.492188 3.554688.023438 102.589844.734375 168.421875 5.492188.808594.101562 1.691406.203125 2.640625.3125 9.425781 1.074218 23.671875 2.699218 36.746094 16.644531l.121094.128906c8.125 8.464844 13.152343 30.058594 14.429687 41.75.226563 2.558594 3.636719 42.171875 3.636719 80.71875zm0 0"/>
  </symbol>
    
</svg>